<svg xmlns="http://www.w3.org/2000/svg" viewBox="0 0 100 140">
  <defs>
    <linearGradient id="potionLiquid" x1="0%" y1="0%" x2="100%" y2="0%">
      <stop offset="0%" stop-color="#8a2be2"/>
      <stop offset="100%" stop-color="#4b0082"/>
    </linearGradient>
    <filter id="potionGlow">
      <feGaussianBlur stdDeviation="3" result="blur"/>
      <feComposite in="SourceGraphic" in2="blur" operator="over"/>
    </filter>
    <linearGradient id="bubbleGradient" x1="0%" y1="0%" x2="100%" y2="100%">
      <stop offset="0%" stop-color="#ffffff" stop-opacity="0.8"/>
      <stop offset="100%" stop-color="#ffffff" stop-opacity="0.2"/>
    </linearGradient>
  </defs>
  
  <!-- Potion bottle -->
  <path d="M30,40 L30,20 L40,10 L60,10 L70,20 L70,40 L85,70 Q90,100 85,115 Q80,130 70,135 L30,135 Q20,130 15,115 Q10,100 15,70 Z" fill="#cfe8f7" opacity="0.8"/>
  
  <!-- Bottle outline -->
  <path d="M30,40 L30,20 L40,10 L60,10 L70,20 L70,40 L85,70 Q90,100 85,115 Q80,130 70,135 L30,135 Q20,130 15,115 Q10,100 15,70 Z" fill="none" stroke="#ffffff" stroke-width="2" opacity="0.6"/>
  
  <!-- Potion liquid -->
  <path d="M30,40 L70,40 L80,70 Q85,100 80,115 Q75,130 65,135 L35,135 Q25,130 20,115 Q15,100 20,70 Z" fill="url(#potionLiquid)" filter="url(#potionGlow)"/>
  
  <!-- Bottle neck and cork -->
  <rect x="40" y="10" width="20" height="10" fill="#cfe8f7" opacity="0.8"/>
  <rect x="42" y="2" width="16" height="10" rx="3" ry="3" fill="#9c6644"/>
  
  <!-- Bubbles -->
  <circle cx="40" cy="70" r="5" fill="url(#bubbleGradient)">
    <animate attributeName="cy" values="70;50;70" dur="3s" repeatCount="indefinite"/>
    <animate attributeName="opacity" values="0.7;0.3;0.7" dur="3s" repeatCount="indefinite"/>
  </circle>
  
  <circle cx="60" cy="90" r="4" fill="url(#bubbleGradient)">
    <animate attributeName="cy" values="90;70;90" dur="4s" repeatCount="indefinite"/>
    <animate attributeName="opacity" values="0.6;0.2;0.6" dur="4s" repeatCount="indefinite"/>
  </circle>
  
  <circle cx="50" cy="100" r="3" fill="url(#bubbleGradient)">
    <animate attributeName="cy" values="100;85;100" dur="3.5s" repeatCount="indefinite"/>
    <animate attributeName="opacity" values="0.5;0.1;0.5" dur="3.5s" repeatCount="indefinite"/>
  </circle>
  
  <!-- Potion glowing effect -->
  <ellipse cx="50" cy="80" rx="25" ry="20" fill="#8a2be2" opacity="0.2" filter="url(#potionGlow)">
    <animate attributeName="opacity" values="0.2;0.1;0.2" dur="2s" repeatCount="indefinite"/>
  </ellipse>
</svg>
