<svg xmlns="http://www.w3.org/2000/svg" viewBox="0 0 120 160">
  <defs>
    <linearGradient id="parchmentGradient" x1="0%" y1="0%" x2="100%" y2="100%">
      <stop offset="0%" stop-color="#f9f6e7"/>
      <stop offset="100%" stop-color="#e6ddb2"/>
    </linearGradient>
    <filter id="parchmentShadow">
      <feDropShadow dx="3" dy="3" stdDeviation="2" flood-opacity="0.3"/>
    </filter>
  </defs>
  
  <!-- Bottom Roll -->
  <ellipse cx="60" cy="140" rx="50" ry="15" fill="#b8a88a"/>
  <rect x="10" y="130" width="100" height="10" fill="#b8a88a"/>
  
  <!-- Top Roll -->
  <ellipse cx="60" cy="20" rx="50" ry="15" fill="#b8a88a"/>
  <rect x="10" y="20" width="100" height="10" fill="#b8a88a"/>
  
  <!-- Parchment -->
  <path d="M10,30 L10,130 L110,130 L110,30 Z" fill="url(#parchmentGradient)" filter="url(#parchmentShadow)"/>
  
  <!-- Decorative lines for text -->
  <line x1="25" y1="45" x2="95" y2="45" stroke="#b8a88a" stroke-width="1"/>
  <line x1="25" y1="60" x2="95" y2="60" stroke="#b8a88a" stroke-width="1"/>
  <line x1="25" y1="75" x2="95" y2="75" stroke="#b8a88a" stroke-width="1"/>
  <line x1="25" y1="90" x2="95" y2="90" stroke="#b8a88a" stroke-width="1"/>
  <line x1="25" y1="105" x2="95" y2="105" stroke="#b8a88a" stroke-width="1"/>
  
  <!-- Decorative rolled edges -->
  <path d="M10,30 Q15,35 10,40 Q15,45 10,50 Q15,55 10,60 Q15,65 10,70 Q15,75 10,80 Q15,85 10,90 Q15,95 10,100 Q15,105 10,110 Q15,115 10,120 Q15,125 10,130" fill="none" stroke="#b8a88a" stroke-width="1"/>
  <path d="M110,30 Q105,35 110,40 Q105,45 110,50 Q105,55 110,60 Q105,65 110,70 Q105,75 110,80 Q105,85 110,90 Q105,95 110,100 Q105,105 110,110 Q105,115 110,120 Q105,125 110,130" fill="none" stroke="#b8a88a" stroke-width="1"/>
  
  <!-- Seal -->
  <circle cx="60" cy="115" r="10" fill="#b22222"/>
  <path d="M55,110 L65,120 M55,120 L65,110" stroke="#f9f6e7" stroke-width="2"/>
</svg>
